<svg width="254" height="319" viewBox="0 0 254 319" fill="none" xmlns="http://www.w3.org/2000/svg">
<path d="M150.158 6.22437C163.335 -2.07476 180.101 -2.07482 193.278 6.22437C197.124 8.64664 200.912 12.4361 208.486 20.0154C216.061 27.5948 219.849 31.3848 222.27 35.2332C230.564 48.4186 230.564 65.1962 222.27 78.3816C219.849 82.23 216.061 86.0199 208.486 93.5994L147.08 155.044L253.728 261.759L208.811 306.704C193.004 322.52 167.378 322.52 151.571 306.704L73.5439 228.627L73.5371 228.635L0 155.052L134.95 20.0154C142.525 12.4362 146.312 8.64663 150.158 6.22437Z" fill="#075FE4"/>
</svg>
