<svg width="26" height="27" viewBox="0 0 26 27" fill="none" xmlns="http://www.w3.org/2000/svg">
<g clip-path="url(#clip0_1_105)">
<path d="M0 2.51772C0 1.50406 0.8474 0.681274 1.892 0.681274H23.708C24.753 0.681274 25.6 1.50406 25.6 2.51772V24.4821C25.6 25.496 24.753 26.3182 23.708 26.3182H1.892C0.8475 26.3182 0 25.4961 0 24.4824V2.51742V2.51772Z" fill="#075FE4"/>
<path d="M7.77926 22.1359V10.5941H3.94846V22.1359H7.77966H7.77926ZM5.86466 9.01852C7.20026 9.01852 8.03176 8.13224 8.03176 7.02465C8.00676 5.89181 7.20026 5.03027 5.89006 5.03027C4.57896 5.03027 3.72266 5.89181 3.72266 7.02455C3.72266 8.13214 4.55386 9.01842 5.83956 9.01842H5.86436L5.86466 9.01852ZM9.89966 22.1359H13.7302V15.6911C13.7302 15.3466 13.7552 15.0012 13.8564 14.7552C14.1332 14.0657 14.7635 13.352 15.822 13.352C17.2078 13.352 17.7625 14.4103 17.7625 15.962V22.1359H21.5929V15.5182C21.5929 11.9732 19.7033 10.3235 17.183 10.3235C15.1167 10.3235 14.2092 11.4801 13.705 12.2678H13.7305V10.5945H9.89985C9.94985 11.6772 9.89956 22.1363 9.89956 22.1363L9.89966 22.1359Z" fill="#1B1E23"/>
</g>
<defs>
<clipPath id="clip0_1_105">
<rect width="25.6" height="25.7399" fill="white" transform="translate(0 0.630127)"/>
</clipPath>
</defs>
</svg>
