<svg xmlns="http://www.w3.org/2000/svg" width="66" height="61" viewBox="0 0 66 61" fill="none">
    <path fill-rule="evenodd" clip-rule="evenodd" d="M30.4531 2.2138C27.5507 -0.72526 22.8106 -0.740121 19.8897 2.18068L10.5478 11.5226L10.5316 11.5063L5.454 16.6164L0 22.0704L0.107697 22.1782L20.3793 42.939C23.5349 46.1707 28.7239 46.1971 31.9122 42.9978L36.9178 37.9749L21.0849 22.0925L30.4332 12.6981C33.316 9.80108 33.3249 5.12183 30.4531 2.2138Z" fill="#075FE4"/>
    <path fill-rule="evenodd" clip-rule="evenodd" d="M34.7654 57.8398C37.6678 60.7788 42.408 60.7937 45.3288 57.8729L54.6703 48.5314L54.6869 48.5481L59.9122 43.2895L65.2185 37.9832L65.0903 37.8548L44.8802 17.0923C41.7263 13.8522 36.5303 13.8216 33.3385 17.0244L28.3007 22.0795L44.1332 37.9615L34.7854 47.3554C31.9025 50.2525 31.8936 54.9317 34.7654 57.8398Z" fill="#075FE4"/>
</svg>