<svg width="23" height="23" viewBox="0 0 23 23" fill="none" xmlns="http://www.w3.org/2000/svg">
<path d="M20.0662 15.3218L17.0182 14.9738C16.2862 14.8898 15.5662 15.1418 15.0502 15.6578L12.8422 17.8658C9.44617 16.1378 6.66217 13.3658 4.93417 9.9578L7.15417 7.7378C7.67017 7.2218 7.92217 6.5018 7.83817 5.7698L7.49017 2.7458C7.34617 1.5338 6.32617 0.621799 5.10217 0.621799H3.02617C1.67017 0.621799 0.542173 1.7498 0.626173 3.1058C1.26217 13.3538 9.45817 21.5378 19.6942 22.1738C21.0502 22.2578 22.1782 21.1298 22.1782 19.7738V17.6978C22.1902 16.4858 21.2782 15.4658 20.0662 15.3218Z" fill="#075FE4"/>
</svg>
