<svg width="760" height="903" viewBox="0 0 760 903" fill="none" xmlns="http://www.w3.org/2000/svg">
<mask id="path-1-inside-1_248_1348" fill="white">
<path fill-rule="evenodd" clip-rule="evenodd" d="M-144.883 597.68C-145.226 652.278 -101.061 696.72 -46.4622 696.72L128.166 696.721L128.165 697.024L223.34 696.721L325.337 696.721L325.338 694.692L329.442 350.46C330.411 269.164 264.702 202.782 183.401 202.922L128.935 203.016L128.473 499.444L-46.7048 499.875C-100.727 500.008 -144.545 543.659 -144.883 597.68Z"/>
</mask>
<path d="M-46.4622 696.72L-46.4622 693.72L-46.4622 693.72L-46.4622 696.72ZM-144.883 597.68L-141.884 597.699L-144.883 597.68ZM128.166 696.721L131.166 696.725L131.171 693.721L128.166 693.721L128.166 696.721ZM128.165 697.024L125.165 697.019L125.161 700.033L128.175 700.024L128.165 697.024ZM223.34 696.721L223.34 693.721L223.331 693.721L223.34 696.721ZM325.337 696.721L325.337 699.721L328.335 699.721L328.337 696.723L325.337 696.721ZM325.338 694.692L322.338 694.656L322.338 694.673L322.338 694.69L325.338 694.692ZM329.442 350.46L332.441 350.496L329.442 350.46ZM183.401 202.922L183.406 205.922L183.401 202.922ZM128.935 203.016L128.93 200.016L125.94 200.021L125.935 203.011L128.935 203.016ZM128.473 499.444L128.481 502.444L131.469 502.437L131.473 499.449L128.473 499.444ZM-46.7048 499.875L-46.6974 502.875L-46.7048 499.875ZM-46.4622 693.72C-99.3967 693.72 -142.215 650.632 -141.884 597.699L-147.883 597.661C-148.236 653.923 -102.725 699.72 -46.4622 699.72L-46.4622 693.72ZM128.166 693.721L-46.4622 693.72L-46.4622 699.72L128.166 699.721L128.166 693.721ZM131.165 697.028L131.166 696.725L125.166 696.716L125.165 697.019L131.165 697.028ZM223.331 693.721L128.156 694.024L128.175 700.024L223.35 699.721L223.331 693.721ZM325.337 693.721L223.34 693.721L223.34 699.721L325.337 699.721L325.337 693.721ZM322.338 694.69L322.337 696.719L328.337 696.723L328.338 694.694L322.338 694.69ZM326.442 350.424L322.338 694.656L328.338 694.728L332.441 350.496L326.442 350.424ZM183.406 205.922C263.034 205.785 327.391 270.801 326.442 350.424L332.441 350.496C333.431 267.527 266.369 199.779 183.395 199.922L183.406 205.922ZM128.941 206.016L183.406 205.922L183.395 199.922L128.93 200.016L128.941 206.016ZM131.473 499.449L131.935 203.021L125.935 203.011L125.473 499.439L131.473 499.449ZM-46.6974 502.875L128.481 502.444L128.466 496.444L-46.7122 496.875L-46.6974 502.875ZM-141.884 597.699C-141.555 545.324 -99.0728 503.004 -46.6974 502.875L-46.7122 496.875C-102.381 497.012 -147.534 541.994 -147.883 597.661L-141.884 597.699Z" fill="#075FE4" fill-opacity="0.6" mask="url(#path-1-inside-1_248_1348)"/>
<g opacity="0.4">
<mask id="path-3-inside-2_248_1348" fill="white">
<path fill-rule="evenodd" clip-rule="evenodd" d="M112.733 686.676C139.736 734.13 200.205 750.536 247.489 723.237L398.721 635.923L398.872 636.186L481.145 588.336L569.476 537.338L568.463 535.58L399.901 235.415C360.092 164.526 269.995 139.892 199.656 180.664L152.535 207.978L300.349 464.923L148.856 552.885C102.138 580.011 86.016 639.723 112.733 686.676Z"/>
</mask>
<path d="M247.489 723.237L246.489 721.505L246.489 721.505L247.489 723.237ZM112.733 686.676L114.472 685.687L112.733 686.676ZM398.721 635.923L400.455 634.926L399.456 633.19L397.721 634.191L398.721 635.923ZM398.872 636.186L397.139 637.183L398.141 638.925L399.878 637.915L398.872 636.186ZM481.145 588.336L480.145 586.604L480.139 586.607L481.145 588.336ZM569.476 537.338L570.476 539.07L572.207 538.071L571.209 536.339L569.476 537.338ZM568.463 535.58L566.719 536.56L566.725 536.569L566.73 536.579L568.463 535.58ZM399.901 235.415L401.645 234.435L399.901 235.415ZM199.656 180.664L200.659 182.394L199.656 180.664ZM152.535 207.978L151.532 206.247L149.808 207.247L150.802 208.975L152.535 207.978ZM300.349 464.923L301.353 466.652L303.076 465.652L302.083 463.925L300.349 464.923ZM148.856 552.885L149.86 554.615L148.856 552.885ZM246.489 721.505C200.166 748.25 140.925 732.177 114.472 685.687L110.995 687.665C138.546 736.084 200.244 752.823 248.489 724.969L246.489 721.505ZM397.721 634.191L246.489 721.505L248.489 724.969L399.721 637.655L397.721 634.191ZM400.606 635.189L400.455 634.926L396.988 636.92L397.139 637.183L400.606 635.189ZM480.139 586.607L397.867 634.457L399.878 637.915L482.15 590.065L480.139 586.607ZM568.476 535.606L480.145 586.604L482.145 590.068L570.476 539.07L568.476 535.606ZM566.73 536.579L567.744 538.337L571.209 536.339L570.196 534.581L566.73 536.579ZM398.157 236.394L566.719 536.56L570.207 534.601L401.645 234.435L398.157 236.394ZM200.659 182.394C270.033 142.181 358.895 166.478 398.157 236.394L401.645 234.435C361.29 162.574 269.957 137.602 198.653 178.933L200.659 182.394ZM153.538 209.708L200.659 182.394L198.653 178.933L151.532 206.247L153.538 209.708ZM302.083 463.925L154.269 206.98L150.802 208.975L298.615 465.92L302.083 463.925ZM149.86 554.615L301.353 466.652L299.345 463.193L147.852 551.155L149.86 554.615ZM114.472 685.687C88.2972 639.688 104.091 581.189 149.86 554.615L147.852 551.155C100.184 578.833 83.7348 639.758 110.995 687.665L114.472 685.687Z" fill="#075FE4" mask="url(#path-3-inside-2_248_1348)"/>
</g>
<g opacity="0.4">
<mask id="path-5-inside-3_248_1348" fill="white">
<path fill-rule="evenodd" clip-rule="evenodd" d="M363.203 639.742C410.315 667.337 470.886 651.311 498.185 604.027L585.5 452.795L585.762 452.947L633.087 370.371L684.085 282.04L682.329 281.024L386.267 105.354C316.347 63.8672 226.004 87.5818 185.475 158.061L158.323 205.276L414.807 353.89L327.591 505.814C300.695 552.665 316.589 612.438 363.203 639.742Z"/>
</mask>
<path d="M498.185 604.027L497.319 603.527L498.185 604.027ZM363.203 639.742L363.709 638.879L363.203 639.742ZM585.5 452.795L586.001 451.929L585.134 451.427L584.633 452.295L585.5 452.795ZM585.762 452.947L585.26 453.812L586.13 454.316L586.629 453.444L585.762 452.947ZM633.087 370.371L632.221 369.871L632.219 369.874L633.087 370.371ZM684.085 282.04L684.951 282.54L685.451 281.674L684.586 281.174L684.085 282.04ZM682.329 281.024L681.818 281.884L681.828 281.89L682.329 281.024ZM386.267 105.354L386.777 104.494L386.267 105.354ZM185.475 158.061L186.341 158.559L185.475 158.061ZM158.323 205.276L157.457 204.777L156.96 205.641L157.822 206.141L158.323 205.276ZM414.807 353.89L415.674 354.388L416.17 353.524L415.308 353.025L414.807 353.89ZM327.591 505.814L328.458 506.312L327.591 505.814ZM497.319 603.527C470.297 650.33 410.342 666.194 363.709 638.879L362.698 640.605C410.288 668.481 471.474 652.291 499.051 604.527L497.319 603.527ZM584.633 452.295L497.319 603.527L499.051 604.527L586.366 453.295L584.633 452.295ZM586.263 452.081L586.001 451.929L584.998 453.66L585.26 453.812L586.263 452.081ZM632.219 369.874L584.894 452.449L586.629 453.444L633.955 370.868L632.219 369.874ZM683.219 281.54L632.221 369.871L633.953 370.871L684.951 282.54L683.219 281.54ZM681.828 281.89L683.585 282.906L684.586 281.174L682.829 280.159L681.828 281.89ZM385.756 106.214L681.819 281.884L682.839 280.164L386.777 104.494L385.756 106.214ZM186.341 158.559C226.593 88.5637 316.317 65.0118 385.756 106.214L386.777 104.494C316.378 62.7227 225.415 86.5999 184.608 157.562L186.341 158.559ZM159.19 205.774L186.341 158.559L184.608 157.562L157.457 204.777L159.19 205.774ZM415.308 353.025L158.825 204.411L157.822 206.141L414.305 354.755L415.308 353.025ZM328.458 506.312L415.674 354.388L413.939 353.392L326.723 505.316L328.458 506.312ZM363.709 638.879C317.568 611.853 301.835 552.687 328.458 506.312L326.723 505.316C299.554 552.643 315.61 613.024 362.698 640.605L363.709 638.879Z" fill="url(#paint0_linear_248_1348)" mask="url(#path-5-inside-3_248_1348)"/>
</g>
<defs>
<linearGradient id="paint0_linear_248_1348" x1="347" y1="414.792" x2="802.5" y2="261.292" gradientUnits="userSpaceOnUse">
<stop stop-color="#075FE4"/>
<stop offset="1" stop-color="#075FE4" stop-opacity="0.15"/>
</linearGradient>
</defs>
</svg>
