<svg xmlns="http://www.w3.org/2000/svg" width="55" height="53" viewBox="0 0 55 53" fill="none">
    <g clip-path="url(#clip0_1_127)">
        <path d="M49.9308 40.7948C47.0243 40.7223 44.7717 41.013 42.8824 41.8122C42.3374 42.03 41.4653 42.0302 41.3926 42.7206C41.6833 43.0113 41.7196 43.4836 41.974 43.8831C42.4104 44.6096 43.1729 45.5907 43.8633 46.0996C44.6261 46.6808 45.3894 47.262 46.1884 47.7707C47.6055 48.6427 49.2043 49.1512 50.5848 50.0233C51.3844 50.5316 52.1832 51.1861 52.9826 51.7309C53.3823 52.0212 53.6364 52.4939 54.1453 52.6754V52.5666C53.8908 52.2394 53.8181 51.7672 53.564 51.4039C53.201 51.0405 52.8372 50.7135 52.4739 50.3501C51.4203 48.9334 50.1124 47.698 48.6955 46.6808C47.533 45.8814 44.9895 44.7915 44.5173 43.4471C44.5173 43.4471 44.4808 43.411 44.4446 43.3746C45.2438 43.302 46.1884 43.0113 46.9516 42.7933C48.1868 42.466 49.3131 42.5389 50.5848 42.2119C51.166 42.0665 51.7474 41.8848 52.3285 41.7032V41.3764C51.6749 40.7223 51.2025 39.8504 50.5121 39.2327C48.6592 37.6337 46.6244 36.0717 44.5173 34.7638C43.3909 34.0371 41.9374 33.5647 40.7386 32.9472C40.3029 32.729 39.576 32.6202 39.3219 32.2568C38.6676 31.4576 38.3043 30.4041 37.8321 29.4594C36.7788 27.4609 35.7611 25.2448 34.8527 23.1377C34.1991 21.7206 33.7994 20.3035 33 18.9958C29.2578 12.8193 25.1886 9.07709 18.9396 5.40735C17.5952 4.6445 15.9966 4.31748 14.289 3.91799C13.381 3.88144 12.4724 3.80898 11.5642 3.77243C10.9828 3.51808 10.4015 2.8279 9.89275 2.50088C7.82222 1.19278 2.48102 -1.64081 0.955108 2.10139C-0.0259671 4.46282 2.40855 6.78791 3.24387 7.98722C3.862 8.82274 4.66097 9.76727 5.09701 10.712C5.35136 11.3293 5.42382 11.9838 5.67818 12.6376C6.25976 14.2358 6.80439 16.0165 7.56766 17.5062C7.96735 18.2691 8.40318 19.0683 8.91188 19.7587C9.20257 20.1581 9.71107 20.34 9.82029 20.9939C9.31179 21.7206 9.27524 22.8107 8.98435 23.7189C7.67646 27.8244 8.18537 32.9109 10.0381 35.9263C10.6193 36.8343 12 38.8332 13.853 38.07C15.4881 37.4161 15.1247 35.3452 15.5967 33.5286C15.7061 33.0921 15.6334 32.8019 15.8512 32.5112V32.5841C16.36 33.601 16.8684 34.5823 17.3408 35.5995C18.4672 37.3796 20.429 39.2327 22.0639 40.4682C22.9362 41.1218 23.6263 42.2482 24.7164 42.6479V42.5387H24.6435C24.4255 42.2117 24.0985 42.0665 23.808 41.812C23.1542 41.1583 22.4272 40.3589 21.9188 39.6322C20.3931 37.5974 19.0484 35.345 17.8495 33.0197C17.2684 31.8937 16.7594 30.6582 16.2873 29.532C16.0691 29.0956 16.0691 28.4419 15.7059 28.2241C15.1609 29.0233 14.3617 29.7137 13.962 30.6946C13.272 32.2568 13.1991 34.1824 12.9448 36.1805C12.7994 36.2172 12.8719 36.1805 12.7992 36.2536C11.6369 35.9625 11.2372 34.7638 10.8009 33.7464C9.71086 31.1669 9.52918 27.025 10.4741 24.0459C10.7285 23.2828 11.8186 20.8851 11.3825 20.1584C11.1645 19.468 10.4376 19.0683 10.0381 18.5234C9.56593 17.8331 9.05702 16.9614 8.7302 16.1981C7.85814 14.1635 7.4221 11.9109 6.47757 9.87628C6.04154 8.93154 5.2789 7.95088 4.66097 7.07881C3.9708 6.09795 3.20774 5.40735 2.6627 4.2448C2.48123 3.84531 2.22666 3.19127 2.51735 2.75523C2.59002 2.46454 2.73516 2.35574 3.02606 2.28307C3.49843 1.88316 4.84286 2.39187 5.31482 2.60989C6.65925 3.15451 7.78546 3.66363 8.91188 4.42648C9.42038 4.78985 9.96542 5.48023 10.6193 5.66191H11.3823C12.5451 5.91606 13.8528 5.73458 14.9428 6.0614C16.8687 6.67891 18.6124 7.58731 20.1748 8.56838C24.9344 11.5839 28.8579 15.8711 31.5104 20.9939C31.9465 21.8292 32.1279 22.5927 32.5276 23.4643C33.2909 25.2448 34.2354 27.0614 34.9981 28.8053C35.7611 30.5127 36.4877 32.2568 37.5777 33.6739C38.1228 34.4366 40.3025 34.8365 41.2836 35.2362C42.0103 35.563 43.1367 35.8539 43.7906 36.2534C45.0258 37.016 46.261 37.8885 47.4238 38.7238C48.0052 39.1598 49.8215 40.0683 49.9308 40.7948Z" fill="#00B8EB"/>
        <path d="M12.8754 9.22131C12.2579 9.22131 11.8221 9.2944 11.386 9.4032V9.47588H11.4587C11.7496 10.0573 12.2579 10.457 12.6211 10.9654C12.912 11.5466 13.1661 12.1282 13.457 12.7096C13.4931 12.673 13.5295 12.6369 13.5295 12.6369C14.0384 12.2733 14.2925 11.6922 14.2925 10.8201C14.0745 10.566 14.0382 10.3116 13.8565 10.0573C13.6387 9.69368 13.1661 9.51221 12.8754 9.22131Z" fill="#00B8EB"/>
    </g>
    <defs>
        <clipPath id="clip0_1_127">
            <rect width="53.46" height="52.6261" fill="white" transform="translate(0.723938 0.236603)"/>
        </clipPath>
    </defs>
</svg>