<svg xmlns="http://www.w3.org/2000/svg" width="60" height="59" viewBox="0 0 60 59" fill="none">
    <path d="M54.1684 26.3938C54.1684 23.2324 50.1003 20.2364 43.863 18.3785C45.3024 12.1919 44.6628 7.26978 41.8439 5.69393C41.1941 5.32429 40.4346 5.14919 39.6049 5.14919V7.31842C40.0647 7.31842 40.4346 7.40597 40.7444 7.57132C42.1038 8.33006 42.6936 11.2191 42.2337 14.935C42.1239 15.8494 41.944 16.8124 41.724 17.7948C39.7648 17.3279 37.6258 16.968 35.3768 16.7346C34.0275 14.935 32.6281 13.3008 31.2186 11.8708C34.4772 8.92344 37.5359 7.30867 39.615 7.30867V5.13947C36.8661 5.13947 33.2678 7.04605 29.6295 10.3534C25.9909 7.06549 22.3926 5.17838 19.6439 5.17838V7.34759C21.713 7.34759 24.7815 8.95263 28.0401 11.8806C26.6407 13.3105 25.2413 14.935 23.9118 16.7346C21.6528 16.968 19.5138 17.3279 17.5548 17.8046C17.3248 16.8318 17.1549 15.8883 17.0349 14.9836C16.5653 11.2677 17.1449 8.37869 18.4944 7.61023C18.7941 7.43514 19.1839 7.35733 19.6439 7.35733V5.1881C18.8042 5.1881 18.0445 5.3632 17.3849 5.73285C14.576 7.30867 13.9464 12.221 15.3957 18.3882C9.17848 20.2559 5.13028 23.2422 5.13028 26.3938C5.13028 29.5554 9.19846 32.5514 15.4357 34.4092C13.9963 40.596 14.6359 45.5179 17.4549 47.0938C18.1046 47.4633 18.8641 47.6384 19.7038 47.6384C22.4525 47.6384 26.0511 45.7319 29.6894 42.4246C33.3277 45.7126 36.9262 47.5997 39.6749 47.5997C40.5144 47.5997 41.2741 47.4246 41.9339 47.0549C44.7426 45.479 45.3724 40.5666 43.9229 34.3996C50.1202 32.5416 54.1684 29.5456 54.1684 26.3938ZM41.1543 19.9057C40.7844 21.1606 40.3247 22.4542 39.8048 23.7479C39.3951 22.9699 38.9653 22.1916 38.4954 21.4134C38.0357 20.6352 37.5457 19.8765 37.056 19.1372C38.4753 19.3415 39.8448 19.5944 41.1543 19.9057ZM36.5762 30.2653C35.7966 31.5787 34.9971 32.8237 34.1674 33.9814C32.6779 34.1077 31.1688 34.1758 29.6494 34.1758C28.14 34.1758 26.6306 34.1077 25.1514 33.9909C24.3218 32.8333 23.512 31.598 22.7324 30.2945C21.9727 29.0203 21.2831 27.7265 20.6533 26.4232C21.2731 25.1196 21.9727 23.816 22.7225 22.5418C23.5022 21.2287 24.3016 19.9835 25.1313 18.8259C26.6208 18.6995 28.1299 18.6314 29.6494 18.6314C31.1587 18.6314 32.6681 18.6995 34.1473 18.8162C34.9769 19.9738 35.7867 21.2091 36.5663 22.5127C37.326 23.7869 38.0156 25.0807 38.6454 26.3842C38.0156 27.6876 37.326 28.9911 36.5762 30.2653ZM39.8048 29.0009C40.3295 30.2686 40.7899 31.5606 41.1843 32.8722C39.8747 33.1835 38.4954 33.4463 37.0661 33.6505C37.5558 32.9016 38.0455 32.1331 38.5055 31.3451C38.9653 30.567 39.3951 29.779 39.8048 29.0009ZM29.6692 39.3801C28.7397 38.4461 27.8101 37.4052 26.8906 36.2672C27.7902 36.3061 28.7097 36.3353 29.6393 36.3353C30.5789 36.3353 31.5085 36.3159 32.4182 36.2672C31.5602 37.3523 30.6425 38.3914 29.6692 39.3801ZM22.2326 33.6505C20.8133 33.4463 19.4439 33.1933 18.1346 32.882C18.5042 31.6272 18.9642 30.3334 19.4839 29.0396C19.8938 29.8179 20.3236 30.5962 20.7932 31.3742C21.263 32.1525 21.7429 32.9112 22.2326 33.6505ZM29.6194 13.4078C30.549 14.3416 31.4786 15.3824 32.3981 16.5205C31.4985 16.4816 30.5789 16.4525 29.6494 16.4525C28.7097 16.4525 27.7801 16.4719 26.8707 16.5205C27.7286 15.4355 28.6462 14.3964 29.6194 13.4078ZM22.2226 19.1372C21.7328 19.8862 21.2431 20.6547 20.7834 21.4425C20.3236 22.2208 19.8938 22.999 19.4839 23.7771C18.9591 22.5094 18.4988 21.2174 18.1046 19.9057C19.4139 19.6041 20.7932 19.3415 22.2226 19.1372ZM13.1766 31.3159C9.63828 29.8471 7.34929 27.9212 7.34929 26.3938C7.34929 24.8666 9.63828 22.931 13.1766 21.4719C14.0363 21.1119 14.9759 20.7909 15.9455 20.4893C16.5152 22.3959 17.2649 24.3803 18.1945 26.4134C17.2749 28.4367 16.5351 30.4113 15.9754 32.3082C14.986 32.0065 14.0463 31.6759 13.1766 31.3159ZM18.5543 45.2164C17.1949 44.4577 16.6051 41.5687 17.0651 37.8527C17.175 36.9385 17.3547 35.9753 17.5747 34.9928C19.534 35.4598 21.6729 35.8198 23.9219 36.0532C25.2712 37.8527 26.6706 39.4869 28.0801 40.9168C24.8215 43.8643 21.7628 45.479 19.6837 45.479C19.234 45.4694 18.8543 45.3817 18.5543 45.2164ZM42.2638 37.8042C42.7334 41.52 42.1539 44.409 40.8043 45.1775C40.5046 45.3526 40.1148 45.4304 39.6548 45.4304C37.5858 45.4304 34.5172 43.8254 31.2586 40.8974C32.658 39.4675 34.0574 37.8431 35.3869 36.0434C37.6459 35.81 39.7849 35.45 41.7439 34.9734C41.9739 35.9559 42.1539 36.8995 42.2638 37.8042ZM46.112 31.3159C45.2524 31.6759 44.3127 31.997 43.3432 32.2984C42.7734 30.3919 42.0238 28.4075 41.0942 26.3744C42.0139 24.3511 42.7535 22.3765 43.3132 20.4796C44.3029 20.7812 45.2423 21.1119 46.1221 21.4719C49.6605 22.9405 51.9494 24.8666 51.9494 26.3938C51.9394 27.9212 49.6504 29.8568 46.112 31.3159Z" fill="#61DAFB"/>
    <path d="M29.6412 30.8395C32.1641 30.8395 34.2093 28.8493 34.2093 26.394C34.2093 23.9389 32.1641 21.9486 29.6412 21.9486C27.1184 21.9486 25.0733 23.9389 25.0733 26.394C25.0733 28.8493 27.1184 30.8395 29.6412 30.8395ZM7.35886 55.2928H5.85095V57.8201H5V51.5726H7.12518C7.84826 51.5726 8.40382 51.7329 8.79181 52.0533C9.18275 52.3735 9.37823 52.8398 9.37823 53.4519C9.37823 53.8411 9.26947 54.1799 9.05195 54.469C8.83738 54.7579 8.53756 54.9739 8.1525 55.1168L9.66041 57.7685V57.8201H8.75213L7.35886 55.2928ZM5.85095 54.6191H7.15164C7.57198 54.6191 7.90559 54.5132 8.1525 54.3015C8.40234 54.0899 8.52726 53.8067 8.52726 53.4519C8.52726 53.0658 8.40822 52.7698 8.17014 52.5638C7.93498 52.3578 7.59402 52.2534 7.14722 52.2506H5.85095V54.6191ZM12.4206 57.906C11.7738 57.906 11.2477 57.7 10.842 57.288C10.4364 56.8732 10.2336 56.3196 10.2336 55.6275V55.4816C10.2336 55.0211 10.3232 54.6106 10.5025 54.2502C10.6848 53.8867 10.9376 53.6035 11.2609 53.4006C11.5872 53.1946 11.9399 53.0915 12.3191 53.0915C12.9394 53.0915 13.4215 53.2903 13.7652 53.6879C14.1092 54.0855 14.2811 54.6548 14.2811 55.3956V55.726H11.0493C11.061 56.1839 11.1977 56.5543 11.4593 56.8375C11.7239 57.1177 12.0589 57.258 12.4646 57.258C12.7527 57.258 12.9966 57.2008 13.1964 57.0864C13.3964 56.972 13.5712 56.8204 13.7212 56.6316L14.2194 57.0092C13.8195 57.6069 13.2201 57.906 12.4206 57.906ZM12.3191 53.7438C11.9899 53.7438 11.7136 53.8611 11.4902 54.0956C11.2668 54.3274 11.1286 54.6535 11.0757 55.0739H13.4655V55.0139C13.442 54.6106 13.3303 54.2987 13.1305 54.0784C12.9304 53.8554 12.66 53.7438 12.3191 53.7438ZM18.1744 57.8201C18.1272 57.7285 18.089 57.5656 18.0597 57.3309C17.6805 57.7141 17.2278 57.906 16.7017 57.906C16.2314 57.906 15.845 57.7772 15.5421 57.5197C15.2424 57.2593 15.0924 56.9304 15.0924 56.5328C15.0924 56.0495 15.2806 55.6747 15.6568 55.4087C16.0359 55.1396 16.568 55.0052 17.2529 55.0052H18.0466V54.6406C18.0466 54.3631 17.9612 54.1427 17.7909 53.9798C17.6203 53.8139 17.3689 53.731 17.0367 53.731C16.7457 53.731 16.5019 53.8023 16.305 53.9455C16.1081 54.0884 16.0095 54.2615 16.0095 54.4647H15.1894C15.1894 54.233 15.2732 54.0098 15.4407 53.7952C15.6112 53.5779 15.8405 53.4062 16.1286 53.2803C16.4196 53.1546 16.7384 53.0915 17.0852 53.0915C17.6351 53.0915 18.0656 53.2259 18.3771 53.495C18.6887 53.761 18.8503 54.1286 18.8622 54.5976V56.7344C18.8622 57.1608 18.918 57.4997 19.0298 57.7513V57.8201H18.1744ZM16.8208 57.2151C17.0765 57.2151 17.319 57.1508 17.5484 57.022C17.7775 56.8932 17.9435 56.726 18.0466 56.52V55.5675H17.4071C16.4078 55.5675 15.908 55.852 15.908 56.4212C15.908 56.6701 15.9934 56.8647 16.1637 57.0048C16.3343 57.1449 16.5533 57.2151 16.8208 57.2151ZM22.0543 57.258C22.3453 57.258 22.5997 57.1721 22.8172 57.0005C23.0346 56.8288 23.1551 56.6144 23.1786 56.3568H23.9504C23.9356 56.6229 23.8415 56.876 23.6681 57.1164C23.4946 57.3567 23.2624 57.5484 22.9714 57.6913C22.6833 57.8344 22.3777 57.906 22.0543 57.906C21.4048 57.906 20.8874 57.6956 20.5023 57.2752C20.1203 56.8517 19.9292 56.274 19.9292 55.5416V55.4087C19.9292 54.9567 20.0143 54.5547 20.1849 54.203C20.3554 53.8511 20.5993 53.5779 20.9169 53.3834C21.2372 53.1887 21.6149 53.0915 22.0499 53.0915C22.5849 53.0915 23.0288 53.2475 23.3815 53.5594C23.7371 53.8711 23.9267 54.2759 23.9504 54.7735H23.1786C23.1551 54.4732 23.0375 54.2271 22.8259 54.0355C22.6173 53.8411 22.3585 53.7438 22.0499 53.7438C21.6355 53.7438 21.3136 53.8896 21.0843 54.1815C20.8581 54.4703 20.7448 54.8895 20.7448 55.4387V55.5888C20.7448 56.1237 20.8581 56.5356 21.0843 56.8245C21.3107 57.1136 21.6341 57.258 22.0543 57.258ZM25.974 52.0533V53.1774H26.8647V53.791H25.974V56.6701C25.974 56.856 26.0138 56.9961 26.0932 57.0905C26.1725 57.1821 26.3077 57.228 26.4988 57.228C26.5927 57.228 26.7221 57.2108 26.8866 57.1764V57.8201C26.672 57.8773 26.4635 57.906 26.2606 57.906C25.8962 57.906 25.6213 57.7985 25.436 57.584C25.251 57.3696 25.1584 57.0648 25.1584 56.6701V53.791H24.2896V53.1774H25.1584V52.0533H25.974ZM35.123 57.8201H34.2718L31.0401 53.0058V57.8201H30.1892V51.5726H31.0401L34.2808 56.4084V51.5726H35.123V57.8201ZM39.4439 57.8201C39.3967 57.7285 39.3585 57.5656 39.3292 57.3309C38.9499 57.7141 38.4973 57.906 37.9712 57.906C37.5009 57.906 37.1142 57.7772 36.8116 57.5197C36.5119 57.2593 36.3619 56.9304 36.3619 56.5328C36.3619 56.0495 36.5499 55.6747 36.9263 55.4087C37.3053 55.1396 37.8375 55.0052 38.5223 55.0052H39.316V54.6406C39.316 54.3631 39.2306 54.1427 39.0601 53.9798C38.8898 53.8139 38.6383 53.731 38.3062 53.731C38.0152 53.731 37.7713 53.8023 37.5744 53.9455C37.3775 54.0884 37.2789 54.2615 37.2789 54.4647H36.4589C36.4589 54.233 36.5427 54.0098 36.7101 53.7952C36.8807 53.5779 37.11 53.4062 37.3981 53.2803C37.6891 53.1546 38.0078 53.0915 38.3547 53.0915C38.9043 53.0915 39.335 53.2259 39.6466 53.495C39.9582 53.761 40.1198 54.1286 40.1316 54.5976V56.7344C40.1316 57.1608 40.1875 57.4997 40.2992 57.7513V57.8201H39.4439ZM38.0903 57.2151C38.346 57.2151 38.5885 57.1508 38.8178 57.022C39.0469 56.8932 39.213 56.726 39.316 56.52V55.5675H38.6766C37.6772 55.5675 37.1775 55.852 37.1775 56.4212C37.1775 56.6701 37.2629 56.8647 37.4332 57.0048C37.6037 57.1449 37.8228 57.2151 38.0903 57.2151ZM42.5169 52.0533V53.1774H43.4076V53.791H42.5169V56.6701C42.5169 56.856 42.5567 56.9961 42.636 57.0905C42.7154 57.1821 42.8506 57.228 43.0417 57.228C43.1356 57.228 43.265 57.2108 43.4297 57.1764V57.8201C43.2149 57.8773 43.0064 57.906 42.8035 57.906C42.4391 57.906 42.1642 57.7985 41.9789 57.584C41.7939 57.3696 41.7013 57.0648 41.7013 56.6701V53.791H40.8328V53.1774H41.7013V52.0533H42.5169ZM45.2507 57.8201H44.4349V53.1774H45.2507V57.8201ZM44.3687 51.9459C44.3687 51.8173 44.4085 51.7085 44.4878 51.6198C44.5701 51.5311 44.6905 51.4869 44.8492 51.4869C45.0082 51.4869 45.1286 51.5311 45.2109 51.6198C45.2931 51.7085 45.3343 51.8173 45.3343 51.9459C45.3343 52.0746 45.2931 52.1819 45.2109 52.2678C45.1286 52.3535 45.0082 52.3965 44.8492 52.3965C44.6905 52.3965 44.5701 52.3535 44.4878 52.2678C44.4085 52.1819 44.3687 52.0746 44.3687 51.9459ZM48.1342 56.7431L49.3157 53.1774H50.1491L48.4384 57.8201H47.8166L46.0884 53.1774H46.9216L48.1342 56.7431ZM52.8518 57.906C52.2052 57.906 51.679 57.7 51.2734 57.288C50.8677 56.8732 50.665 56.3196 50.665 55.6275V55.4816C50.665 55.0211 50.7546 54.6106 50.9339 54.2502C51.116 53.8867 51.3688 53.6035 51.6922 53.4006C52.0186 53.1946 52.3713 53.0915 52.7503 53.0915C53.3706 53.0915 53.8527 53.2903 54.1967 53.6879C54.5404 54.0855 54.7125 54.6548 54.7125 55.3956V55.726H51.4806C51.4924 56.1839 51.629 56.5543 51.8907 56.8375C52.1551 57.1177 52.4904 57.258 52.8958 57.258C53.1839 57.258 53.428 57.2008 53.6278 57.0864C53.8277 56.972 54.0027 56.8204 54.1526 56.6316L54.6508 57.0092C54.251 57.6069 53.6513 57.906 52.8518 57.906ZM52.7503 53.7438C52.4213 53.7438 52.1448 53.8611 51.9216 54.0956C51.698 54.3274 51.5599 54.6535 51.5072 55.0739H53.8967V55.0139C53.8732 54.6106 53.7615 54.2987 53.5617 54.0784C53.3619 53.8554 53.0914 53.7438 52.7503 53.7438Z" fill="#61DAFB"/>
</svg>