<svg xmlns="http://www.w3.org/2000/svg" width="55" height="62" viewBox="0 0 55 62" fill="none">
    <g clip-path="url(#clip0_1_138)">
        <path d="M54.3859 31.3264C54.3859 27.7849 49.9509 24.4287 43.1512 22.3474C44.7204 15.417 44.023 9.90314 40.95 8.13784C40.2417 7.72376 39.4136 7.52762 38.5091 7.52762V9.95762C39.0104 9.95762 39.4136 10.0557 39.7514 10.2409C41.2334 11.0909 41.8763 14.3273 41.375 18.4899C41.2552 19.5142 41.059 20.593 40.8193 21.6936C38.6835 21.1705 36.3516 20.7673 33.8998 20.5058C32.4287 18.4899 30.9031 16.6592 29.3667 15.0574C32.9191 11.7556 36.2535 9.94673 38.52 9.94673V7.51672C35.5234 7.51672 31.6005 9.65251 27.6341 13.3574C23.6676 9.6743 19.7447 7.56031 16.7481 7.56031V9.99031C19.0037 9.99031 22.3491 11.7883 25.9015 15.0683C24.3759 16.6701 22.8503 18.4899 21.4011 20.5058C18.9384 20.7673 16.6064 21.1705 14.4707 21.7044C14.22 20.6148 14.0348 19.5578 13.904 18.5444C13.3919 14.3818 14.0239 11.1454 15.495 10.2845C15.8219 10.0884 16.2468 10.0012 16.7481 10.0012V7.57121C15.8328 7.57121 15.0046 7.76735 14.2854 8.18143C11.2234 9.94673 10.5369 15.4496 12.1169 22.3583C5.33907 24.4505 0.925842 27.7958 0.925842 31.3264C0.925842 34.8679 5.36087 38.2241 12.1605 40.3054C10.5914 47.2358 11.2888 52.7496 14.3617 54.5149C15.07 54.929 15.8981 55.1251 16.8135 55.1251C19.8101 55.1251 23.733 52.9894 27.6995 49.2844C31.6659 52.9676 35.5888 55.0816 38.5854 55.0816C39.5008 55.0816 40.3289 54.8854 41.0481 54.4713C44.1101 52.706 44.7966 47.2031 43.2166 40.2945C49.9726 38.2132 54.3859 34.857 54.3859 31.3264ZM40.1982 24.0582C39.795 25.4639 39.2937 26.9131 38.7271 28.3624C38.2803 27.4907 37.8117 26.6189 37.2996 25.7472C36.7983 24.8754 36.2644 24.0255 35.7304 23.1973C37.2778 23.4262 38.7707 23.7095 40.1982 24.0582ZM35.2074 35.6633C34.3574 37.1344 33.4857 38.5292 32.5812 39.8259C30.9576 39.9676 29.3122 40.0439 27.6559 40.0439C26.0104 40.0439 24.365 39.9676 22.7523 39.8368C21.8478 38.5401 20.9652 37.1562 20.1152 35.696C19.2871 34.2685 18.5352 32.8193 17.8487 31.3591C18.5243 29.8989 19.2871 28.4387 20.1043 27.0112C20.9543 25.5401 21.826 24.1453 22.7305 22.8486C24.3541 22.707 25.9995 22.6307 27.6559 22.6307C29.3013 22.6307 30.9467 22.707 32.5595 22.8377C33.4639 24.1344 34.3465 25.5184 35.1965 26.9785C36.0247 28.406 36.7765 29.8553 37.463 31.3155C36.7765 32.7757 36.0247 34.2358 35.2074 35.6633ZM38.7271 34.2467C39.3155 35.7069 39.8168 37.1671 40.2309 38.5837C38.8034 38.9324 37.2996 39.2266 35.7413 39.4554C36.2753 38.6164 36.8092 37.7555 37.3105 36.8729C37.8117 36.0011 38.2803 35.1185 38.7271 34.2467ZM27.6777 45.8737C26.6642 44.8276 25.6508 43.6616 24.6483 42.3867C25.629 42.4303 26.6316 42.463 27.645 42.463C28.6693 42.463 29.6827 42.4412 30.6743 42.3867C29.6936 43.6616 28.6802 44.8276 27.6777 45.8737ZM19.5704 39.4554C18.023 39.2266 16.5302 38.9433 15.1027 38.5946C15.5059 37.1889 16.0071 35.7396 16.5737 34.2903C17.0205 35.1621 17.4891 36.0338 18.0012 36.9056C18.5134 37.7773 19.0364 38.6273 19.5704 39.4554ZM27.6232 16.7791C28.6366 17.8252 29.65 18.9911 30.6525 20.2661C29.6718 20.2225 28.6693 20.1898 27.6559 20.1898C26.6316 20.1898 25.6182 20.2116 24.6265 20.2661C25.6073 18.9911 26.6207 17.8252 27.6232 16.7791ZM19.5595 23.1973C19.0255 24.0364 18.4916 24.8972 17.9903 25.7799C17.4891 26.6516 17.0205 27.5234 16.5737 28.3951C15.9853 26.9349 15.4841 25.4748 15.07 24.0582C16.4975 23.7204 18.0012 23.4262 19.5595 23.1973ZM9.69782 36.8402C5.84033 35.1948 3.34495 33.0372 3.34495 31.3264C3.34495 29.6156 5.84033 27.4471 9.69782 25.8126C10.635 25.4094 11.6593 25.0498 12.7163 24.712C13.3374 26.8478 14.1546 29.0707 15.1681 31.3482C14.1655 33.6147 13.3592 35.8268 12.7489 37.9517C11.6702 37.6139 10.6459 37.2434 9.69782 36.8402ZM15.5603 52.4118C14.0784 51.5619 13.4354 48.3255 13.9367 44.1629C14.0566 43.1386 14.2527 42.0598 14.4924 40.9592C16.6282 41.4823 18.9602 41.8854 21.412 42.147C22.883 44.1629 24.4086 45.9936 25.9451 47.5954C22.3927 50.8972 19.0582 52.706 16.7917 52.706C16.3013 52.6951 15.8872 52.5971 15.5603 52.4118ZM41.4077 44.1084C41.9199 48.271 41.2878 51.5074 39.8168 52.3682C39.4899 52.5644 39.0649 52.6516 38.5636 52.6516C36.308 52.6516 32.9626 50.8536 29.4103 47.5736C30.9358 45.9718 32.4614 44.152 33.9107 42.1361C36.3734 41.8745 38.7053 41.4714 40.8411 40.9374C41.0917 42.038 41.2878 43.095 41.4077 44.1084ZM45.603 36.8402C44.6659 37.2434 43.6416 37.603 42.5846 37.9408C41.9635 35.805 41.1462 33.582 40.1328 31.3046C41.1353 29.038 41.9417 26.826 42.5519 24.7011C43.6307 25.0389 44.655 25.4094 45.6139 25.8126C49.4714 27.458 51.9668 29.6156 51.9668 31.3264C51.9559 33.0372 49.4605 35.2057 45.603 36.8402Z" fill="#61DAFB"/>
        <path d="M27.6459 36.3061C30.3962 36.3061 32.6258 34.0765 32.6258 31.3262C32.6258 28.5759 30.3962 26.3463 27.6459 26.3463C24.8956 26.3463 22.6661 28.5759 22.6661 31.3262C22.6661 34.0765 24.8956 36.3061 27.6459 36.3061Z" fill="#61DAFB"/>
    </g>
    <defs>
        <clipPath id="clip0_1_138">
            <rect width="53.46" height="60.9162" fill="white" transform="translate(0.923889 0.863403)"/>
        </clipPath>
    </defs>
</svg>