<svg xmlns="http://www.w3.org/2000/svg" width="55" height="62" viewBox="0 0 55 62" fill="none">
    <g clip-path="url(#clip0_1_142)">
        <path d="M17.2925 38.1147C16.3215 38.7218 14.8584 39.7058 13.7266 40.7758C11.8684 42.5306 11.4796 44.9647 12.4598 45.5334C13.3665 46.059 15.4834 45.4335 16.9985 43.7809C18.5885 42.0459 19.2442 39.8465 18.567 37.3498C18.4874 37.3972 18.4093 37.4448 18.3327 37.4891L18.3343 37.4926L18.2316 37.5507C17.8363 37.7867 17.5132 37.9817 17.2925 38.1147ZM44.5803 37.3268C44.0303 38.5224 44.0027 38.9068 44.1698 39.0267C44.9679 38.74 46.2883 38.049 46.2988 36.1971C46.3004 35.9197 46.2392 35.6224 46.1411 35.3112C45.2878 36.0668 44.796 36.8578 44.5803 37.3268ZM53.1444 33.7128C51.0122 33.4643 49.3485 33.7634 48.0573 34.3013C48.2964 34.9236 48.4802 35.5716 48.5061 36.2246C48.566 37.6578 47.5795 38.7185 46.5514 39.4759C45.9511 39.9173 45.3122 40.2116 44.776 40.3893C44.3473 40.5699 43.7774 40.7568 43.3729 40.6743C42.4812 40.4931 42.0065 39.7012 42.6131 37.9537C42.9408 37.0082 43.886 35.5689 45.4117 34.3289C45.064 33.613 44.6764 32.8838 44.4788 32.2135C44.0896 30.8924 43.972 30.0938 43.972 30.0938C43.972 30.0938 42.7144 32.7013 41.092 35.0723C40.9985 35.2101 40.9051 35.345 40.8116 35.4797C41.1303 36.2205 41.3813 37.0036 41.4153 37.7929C41.475 39.2261 40.8546 40.3097 39.8251 41.0653C39.2677 41.4762 38.6732 41.76 38.163 41.9407C37.8368 42.0829 37.1734 42.3174 36.2299 42.3805C35.7139 42.4158 35.2175 42.3838 34.9404 42.1737C34.5588 41.8856 34.5129 41.5297 34.7105 41.044C34.8775 40.6313 36.1274 39.2046 37.1753 37.9554C37.4544 37.621 37.7251 37.2796 37.987 36.9315L37.9809 36.9177C37.9809 36.9177 38.1707 36.6728 38.4788 36.2451C38.0958 35.4202 37.6102 34.5619 37.382 33.7834C36.9927 32.4622 36.875 31.6636 36.875 31.6636C36.875 31.6636 35.6003 34.9316 34.2723 37.54C33.2447 39.5605 32.5583 40.7848 32.249 41.3215L32.2459 41.343C32.2459 41.343 32.1997 41.4213 32.1201 41.5439L32.0606 41.6433L32.059 41.6341C31.7142 42.1432 30.9407 43.1406 30.1718 43.1406C28.0609 43.1406 28.8359 38.8536 28.8359 38.8536C28.8359 38.8536 28.2188 40.4417 27.5232 41.8043C26.9567 42.9153 26.4404 43.8567 25.3115 43.8567C24.9868 43.8567 24.472 43.8475 24.0445 43.4411C23.075 42.52 22.3336 40.1809 22.479 38.3693C22.603 36.829 22.8404 35.7619 23.1652 34.8718C22.5162 35.225 21.8728 35.5883 21.2352 35.9617L20.1873 36.5792L20.2211 36.6406C21.088 38.3175 21.3193 41.9914 19.429 44.8114C17.5389 47.6331 14.0204 49.3499 10.5922 48.3966C9.48609 48.0886 7.81504 45.8002 9.25637 42.6106C10.5277 39.7977 15.6087 37.1387 16.9477 36.475L17.3153 36.2725C14.6456 33.9367 7.97897 30.7855 7.04467 25.9451C6.78113 24.5825 7.41994 21.3237 11.4209 17.5779C14.7861 14.428 19.4674 12.0154 23.7919 10.478C31.057 7.89562 38.7331 9.41881 39.914 14.051C41.0751 18.6064 37.1233 24.0554 32.0621 26.0142C27.5433 27.7629 23.8071 27.4856 22.2722 26.9815C20.5275 26.4082 19.5042 25.257 19.2547 24.6071C19.1565 24.3525 18.9878 23.9251 19.2547 23.778C19.4184 23.6874 19.4842 23.7091 19.9223 24.1934C20.3391 24.6532 22.0147 25.887 25.1979 25.5299C33.551 24.5935 38.5828 18.099 36.9927 14.6042C35.8793 12.1582 29.4411 11.0546 21.3974 15.0657C11.5785 19.9611 11.0456 23.9969 10.9615 25.5297C10.7315 29.7464 16.1617 31.9643 19.0999 35.1001L19.2131 35.2243C19.7629 34.9209 20.3437 34.6006 20.9134 34.288C22.0891 33.6421 23.2656 32.9977 24.4428 32.3546C25.4769 30.8517 27.5752 29.193 29.0903 29.193C31.512 29.193 30.6803 32.6737 30.6803 32.6737C30.6803 32.6737 30.7294 32.5146 30.7951 32.5129C30.864 32.5112 31.1307 32.0543 31.8783 32.3271C32.6472 32.6094 32.4724 33.149 32.4772 33.2041C32.4864 33.3111 31.5688 36.4057 31.1875 38.3908C31.005 39.3381 31.1107 40.028 31.1646 40.028C31.2395 40.028 31.3928 39.787 31.5352 39.5283L31.5321 39.5206C31.5321 39.5206 31.6392 39.3243 31.8186 38.972L31.8539 38.8983L31.8554 38.9016C32.1522 38.3158 32.4362 37.7235 32.707 37.1251C33.3794 35.643 35.945 29.9209 36.1626 29.2882C36.38 28.6552 36.4934 28.0006 36.6008 27.7199C36.7064 27.4394 37.6134 27.2279 38.6732 27.2356C39.7332 27.2433 39.8407 27.6957 39.848 27.789C39.8558 27.8824 39.3441 29.138 39.2262 30.0254C39.1098 30.9129 39.2218 31.3556 39.3183 32.1007C39.3811 32.5879 39.6858 33.2058 40.046 33.906C41.1428 32.1126 43.0726 28.6826 43.258 27.7216C43.385 27.0642 43.5888 26.4341 43.6961 26.1533C43.8033 25.8728 44.7087 25.6615 45.7685 25.669C46.8286 25.6769 46.9357 26.129 46.9434 26.2224C46.9511 26.3159 46.4378 27.5714 46.3215 28.4589C46.205 29.3448 46.3171 29.7892 46.4134 30.5343C46.4963 31.1716 46.9893 32.0284 47.4782 33.003C48.8122 32.3456 50.3824 31.9044 52.2207 31.8952C52.9819 31.8906 53.8659 31.967 54.3224 32.1095V17.4462C54.3224 16.4116 53.7921 15.4581 52.8963 14.9417L28.9756 1.1158C28.5374 0.861988 28.0399 0.728333 27.5334 0.728333C27.027 0.728333 26.5295 0.861988 26.0913 1.1158L2.23661 14.935C1.34199 15.4516 0.863983 16.4064 0.863983 17.4393V45.1028C0.863983 46.1356 1.34491 47.0906 2.23807 47.607L26.1312 61.4367C26.5672 61.6913 27.063 61.8254 27.5679 61.8254C28.0728 61.8254 28.5686 61.6913 29.0046 61.4367L52.9086 47.6068C53.803 47.0889 54.324 46.1352 54.324 45.1025V33.9227C54.0206 33.8333 53.5764 33.7632 53.1444 33.7128ZM27.41 32.264C26.8969 32.8387 26.0224 34.321 25.6133 35.5614C24.7999 38.0241 25.1522 40.5273 25.7281 40.6777C26.4005 40.8537 27.5036 37.5616 28.0317 36.2739C28.3627 35.4674 29.6495 31.8887 29.3676 31.4107C29.1475 31.0367 28.2357 31.3385 27.41 32.264ZM36.716 40.5653C36.716 40.5653 36.5538 40.719 36.6239 40.7616C36.719 40.8184 36.9242 40.7449 37.1479 40.6282C37.7807 40.2302 39.2005 39.2368 39.2036 37.7668C39.2036 37.7238 39.2019 37.6825 39.199 37.638C38.9056 38.0228 38.6074 38.404 38.3044 38.7813C37.8571 39.3378 36.716 40.5653 36.716 40.5653Z" fill="#FF71F1"/>
    </g>
    <defs>
        <clipPath id="clip0_1_142">
            <rect width="53.46" height="61.1951" fill="white" transform="translate(0.863983 0.723938)"/>
        </clipPath>
    </defs>
</svg>