<svg xmlns="http://www.w3.org/2000/svg" width="54" height="55" viewBox="0 0 54 55" fill="none">
    <g clip-path="url(#clip0_1_144)">
        <path d="M0.12384 27.5496V0.819611H53.5839V54.2796H0.12384" fill="#007ACC"/>
        <path d="M11.8484 27.6437V29.8222H18.7983V49.6024H23.7299V29.8222H30.6797V27.6838C30.6797 26.4809 30.6797 25.5053 30.6263 25.4786C30.6263 25.4385 26.3896 25.4251 21.2441 25.4251L11.8885 25.4652V27.6571L11.8484 27.6437ZM43.0825 25.4117C44.4457 25.7325 45.4882 26.3473 46.4237 27.3229C46.9182 27.8575 47.6533 28.7931 47.7068 29.0337C47.7068 29.1138 45.3946 30.6776 43.9913 31.5463C43.9378 31.5864 43.724 31.3592 43.5102 31.0117C42.8152 30.0227 42.1068 29.595 40.9975 29.5148C39.3937 29.4079 38.3245 30.2499 38.3245 31.6532C38.3245 32.0809 38.4047 32.3214 38.5651 32.6689C38.926 33.404 39.5942 33.8451 41.6658 34.7539C45.4882 36.3978 47.1454 37.4803 48.1478 39.0307C49.2838 40.7681 49.5378 43.4946 48.776 45.5394C47.9206 47.7714 45.8357 49.2816 42.8553 49.7761C41.9197 49.9365 39.7813 49.9098 38.7789 49.7361C36.6405 49.3351 34.5957 48.2659 33.3394 46.8893C32.8449 46.3547 31.896 44.9247 31.9494 44.8311L32.4573 44.5103L34.462 43.3476L35.9723 42.4655L36.3198 42.9333C36.7608 43.6282 37.7498 44.5638 38.3245 44.8846C40.062 45.78 42.3875 45.6597 43.5369 44.6173C44.0314 44.1628 44.2452 43.6817 44.2452 43.0135C44.2452 42.3987 44.1517 42.118 43.8443 41.6502C43.4166 41.0622 42.5612 40.581 40.1555 39.5118C37.389 38.3357 36.2129 37.5873 35.1169 36.4379C34.4888 35.7429 33.9141 34.6603 33.6468 33.7649C33.4463 32.9897 33.3795 31.0919 33.5666 30.3301C34.1413 27.6571 36.1594 25.786 39.0462 25.2514C39.9818 25.0642 42.187 25.1444 43.1092 25.385L43.0825 25.4117Z" fill="white"/>
    </g>
    <defs>
        <clipPath id="clip0_1_144">
            <rect x="0.12384" y="0.819611" width="53.46" height="53.46" rx="12.1176" fill="white"/>
        </clipPath>
    </defs>
</svg>